<svg width="14" height="14" viewBox="0 0 14 14" fill="none" xmlns="http://www.w3.org/2000/svg">
<path fill-rule="evenodd" clip-rule="evenodd" d="M2.61333 0.93335H2.56667C2.35293 0.93335 2.16907 0.93335 2.00667 0.971616C1.75526 1.03169 1.52539 1.16019 1.34254 1.34289C1.15968 1.52558 1.03097 1.75533 0.970668 2.00668C0.933334 2.16908 0.933334 2.35202 0.933334 2.56668V4.90002C0.933334 5.11375 0.933334 5.29762 0.971601 5.46002C1.03167 5.71142 1.16018 5.94129 1.34287 6.12415C1.52556 6.30701 1.75532 6.43572 2.00667 6.49602C2.16907 6.53335 2.352 6.53335 2.56667 6.53335H4.9C5.11373 6.53335 5.2976 6.53335 5.46 6.49508C5.71141 6.43501 5.94127 6.30651 6.12413 6.12381C6.30699 5.94112 6.4357 5.71137 6.496 5.46002C6.53333 5.29762 6.53333 5.11468 6.53333 4.90002V2.56668C6.53333 2.35295 6.53333 2.16908 6.49507 2.00668C6.43499 1.75528 6.30649 1.52541 6.1238 1.34255C5.9411 1.15969 5.71135 1.03098 5.46 0.970683C5.2976 0.93335 5.11467 0.93335 4.9 0.93335H2.61333ZM2.22413 1.87975C2.26427 1.87042 2.3268 1.86668 2.61333 1.86668H4.85333C5.1408 1.86668 5.2024 1.86948 5.24253 1.87975C5.32638 1.8998 5.40302 1.94268 5.46398 2.00364C5.52494 2.06459 5.56782 2.14124 5.58787 2.22508C5.5972 2.26428 5.6 2.32588 5.6 2.61335V4.85335C5.6 5.14082 5.5972 5.20242 5.58693 5.24255C5.56688 5.32639 5.524 5.40304 5.46305 5.464C5.40209 5.52495 5.32544 5.56783 5.2416 5.58788C5.20333 5.59628 5.14173 5.60002 4.85333 5.60002H2.61333C2.32587 5.60002 2.26427 5.59722 2.22413 5.58695C2.14029 5.5669 2.06364 5.52402 2.00269 5.46306C1.94173 5.40211 1.89885 5.32546 1.8788 5.24162C1.8704 5.20335 1.86667 5.14175 1.86667 4.85335V2.61335C1.86667 2.32588 1.86947 2.26428 1.87973 2.22415C1.89978 2.14031 1.94266 2.06366 2.00362 2.0027C2.06458 1.94175 2.14123 1.89887 2.22507 1.87882L2.22413 1.87975ZM9.14667 0.93335H9.1C8.88627 0.93335 8.7024 0.93335 8.54 0.971616C8.28859 1.03169 8.05873 1.16019 7.87587 1.34289C7.69301 1.52558 7.5643 1.75533 7.504 2.00668C7.46667 2.16908 7.46667 2.35202 7.46667 2.56668V4.90002C7.46667 5.11375 7.46667 5.29762 7.50493 5.46002C7.56501 5.71142 7.69351 5.94129 7.8762 6.12415C8.0589 6.30701 8.28865 6.43572 8.54 6.49602C8.7024 6.53335 8.88533 6.53335 9.1 6.53335H11.4333C11.6471 6.53335 11.8309 6.53335 11.9933 6.49508C12.2447 6.43501 12.4746 6.30651 12.6575 6.12381C12.8403 5.94112 12.969 5.71137 13.0293 5.46002C13.0667 5.29762 13.0667 5.11468 13.0667 4.90002V2.56668C13.0667 2.35295 13.0667 2.16908 13.0284 2.00668C12.9683 1.75528 12.8398 1.52541 12.6571 1.34255C12.4744 1.15969 12.2447 1.03098 11.9933 0.970683C11.8309 0.93335 11.648 0.93335 11.4333 0.93335H9.14667ZM8.75747 1.87975C8.7976 1.87042 8.86013 1.86668 9.14667 1.86668H11.3867C11.6741 1.86668 11.7357 1.86948 11.7759 1.87975C11.8597 1.8998 11.9364 1.94268 11.9973 2.00364C12.0583 2.06459 12.1012 2.14124 12.1212 2.22508C12.1305 2.26428 12.1333 2.32588 12.1333 2.61335V4.85335C12.1333 5.14082 12.1296 5.20242 12.1203 5.24255C12.1002 5.32639 12.0573 5.40304 11.9964 5.464C11.9354 5.52495 11.8588 5.56783 11.7749 5.58788C11.7357 5.59722 11.6741 5.60002 11.3867 5.60002H9.14667C8.8592 5.60002 8.7976 5.59722 8.75747 5.58695C8.67363 5.5669 8.59698 5.52402 8.53602 5.46306C8.47506 5.40211 8.43218 5.32546 8.41213 5.24162C8.40373 5.20335 8.4 5.14175 8.4 4.85335V2.61335C8.4 2.32588 8.4028 2.26428 8.41307 2.22415C8.43312 2.14031 8.476 2.06366 8.53695 2.0027C8.59791 1.94175 8.67456 1.89887 8.7584 1.87882L8.75747 1.87975ZM2.56667 7.46668H4.9C5.11373 7.46668 5.2976 7.46668 5.46 7.50495C5.71141 7.56502 5.94127 7.69353 6.12413 7.87622C6.30699 8.05891 6.4357 8.28866 6.496 8.54002C6.53333 8.70242 6.53333 8.88535 6.53333 9.10002V11.4333C6.53333 11.6471 6.53333 11.8309 6.49507 11.9934C6.43499 12.2448 6.30649 12.4746 6.1238 12.6575C5.9411 12.8403 5.71135 12.969 5.46 13.0293C5.2976 13.0667 5.11467 13.0667 4.9 13.0667H2.56667C2.35293 13.0667 2.16907 13.0667 2.00667 13.0284C1.75526 12.9683 1.52539 12.8398 1.34254 12.6571C1.15968 12.4745 1.03097 12.2447 0.970668 11.9934C0.933334 11.8309 0.933334 11.648 0.933334 11.4333V9.10002C0.933334 8.88628 0.933334 8.70242 0.971601 8.54002C1.03167 8.28861 1.16018 8.05874 1.34287 7.87589C1.52556 7.69303 1.75532 7.56432 2.00667 7.50402C2.16907 7.46668 2.352 7.46668 2.56667 7.46668ZM2.61333 8.40002C2.32587 8.40002 2.26427 8.40282 2.22413 8.41308C2.14029 8.43313 2.06364 8.47601 2.00269 8.53697C1.94173 8.59793 1.89885 8.67457 1.8788 8.75842C1.8704 8.79668 1.86667 8.85828 1.86667 9.14668V11.3867C1.86667 11.6741 1.86947 11.7357 1.87973 11.7759C1.89978 11.8597 1.94266 11.9364 2.00362 11.9973C2.06458 12.0583 2.14123 12.1012 2.22507 12.1212C2.26427 12.1306 2.32587 12.1333 2.61333 12.1333H4.85333C5.1408 12.1333 5.2024 12.1296 5.24253 12.1203C5.32638 12.1002 5.40302 12.0574 5.46398 11.9964C5.52494 11.9354 5.56782 11.8588 5.58787 11.775C5.5972 11.7358 5.6 11.6741 5.6 11.3867V9.14668C5.6 8.85922 5.5972 8.79762 5.58693 8.75748C5.56688 8.67364 5.524 8.59699 5.46305 8.53604C5.40209 8.47508 5.32544 8.4322 5.2416 8.41215C5.20333 8.40375 5.14173 8.40002 4.85333 8.40002H2.61333ZM9.14667 7.46668H9.1C8.88627 7.46668 8.7024 7.46668 8.54 7.50495C8.28859 7.56502 8.05873 7.69353 7.87587 7.87622C7.69301 8.05891 7.5643 8.28866 7.504 8.54002C7.46667 8.70242 7.46667 8.88535 7.46667 9.10002V11.4333C7.46667 11.6471 7.46667 11.8309 7.50493 11.9934C7.56501 12.2448 7.69351 12.4746 7.8762 12.6575C8.0589 12.8403 8.28865 12.969 8.54 13.0293C8.7024 13.0676 8.88627 13.0676 9.1 13.0676H11.4333C11.6471 13.0676 11.8309 13.0676 11.9933 13.0293C12.2446 12.9691 12.4742 12.8406 12.6569 12.6579C12.8396 12.4752 12.9682 12.2455 13.0284 11.9943C13.0667 11.8319 13.0667 11.648 13.0667 11.4343V9.10002C13.0667 8.88628 13.0667 8.70242 13.0284 8.54002C12.9683 8.28861 12.8398 8.05874 12.6571 7.87589C12.4744 7.69303 12.2447 7.56432 11.9933 7.50402C11.8309 7.46668 11.648 7.46668 11.4333 7.46668H9.14667ZM8.75747 8.41308C8.7976 8.40375 8.86013 8.40002 9.14667 8.40002H11.3867C11.6741 8.40002 11.7357 8.40282 11.7759 8.41308C11.8597 8.43313 11.9364 8.47601 11.9973 8.53697C12.0583 8.59793 12.1012 8.67457 12.1212 8.75842C12.1305 8.79762 12.1333 8.85922 12.1333 9.14668V11.3867C12.1333 11.6741 12.1296 11.7357 12.1203 11.7759C12.1002 11.8597 12.0573 11.9364 11.9964 11.9973C11.9354 12.0583 11.8588 12.1012 11.7749 12.1212C11.7357 12.1306 11.6741 12.1333 11.3867 12.1333H9.14667C8.8592 12.1333 8.7976 12.1296 8.75747 12.1203C8.67363 12.1002 8.59698 12.0574 8.53602 11.9964C8.47506 11.9354 8.43218 11.8588 8.41213 11.775C8.40373 11.7367 8.4 11.6751 8.4 11.3867V9.14668C8.4 8.85922 8.4028 8.79762 8.41307 8.75748C8.43312 8.67364 8.476 8.59699 8.53695 8.53604C8.59791 8.47508 8.67456 8.4322 8.7584 8.41215L8.75747 8.41308Z" fill="white"/>
</svg>
