<svg width="109" height="40" viewBox="0 0 109 40" fill="none" xmlns="http://www.w3.org/2000/svg">
<path d="M7.70311 22.279L8.974 20.1799L1.51172 14.5608L3.82601 14.2641L2.75788 8.92342L7.85304 10.5339L8.48849 8.52764L10.7375 11.8048L10.2021 5.05053L11.9557 6.12865L14.8215 1.52344L17.6418 6.12865L19.5481 4.80778L19.0766 11.8048L21.3909 8.44869L22.0262 10.64L27.0878 8.96318L26.0597 14.1539L28.3587 14.4966L21.1189 20.0799L22.4041 22.279H7.70311Z" fill="#0D6F8E"/>
<path d="M8.78407 20.0898L14.8396 22.2858H7.65283L8.78407 20.0898Z" fill="#0C6B8A"/>
<path d="M21.1192 20.0156L22.4124 22.2841H14.2407L21.1192 20.0156Z" fill="#0C6B8A"/>
<path d="M15.7212 21.795L27.0879 8.90039L26.0597 14.0911L28.3588 14.4338L21.1189 20.0172L15.7212 21.795Z" fill="url(#paint0_linear_9366_16253)"/>
<path d="M14.5669 22.2111L2.75807 8.85938L3.81096 14.1687L1.51192 14.5115L8.75174 20.0948L14.5669 22.2111Z" fill="url(#paint1_linear_9366_16253)"/>
<path d="M15.7536 21.7963L27.0421 8.93313C25.0849 9.59628 23.9876 9.96808 22.0305 10.6312L21.3909 8.38524L19.0984 11.7044L14.5668 22.2117L15.7536 21.7963Z" fill="url(#paint2_linear_9366_16253)"/>
<path d="M14.8043 1.44141L14.5669 22.2107L19.0768 11.7667L19.5515 4.70515L17.6526 6.06999L14.8043 1.44141Z" fill="url(#paint3_linear_9366_16253)"/>
<path d="M14.8042 1.44141L14.5668 22.2107L10.7097 11.7074L10.0569 4.70515L11.9558 6.06999L14.8042 1.44141Z" fill="url(#paint4_linear_9366_16253)"/>
<path d="M2.7583 8.86063L14.5671 22.2123L10.7378 11.742L8.48873 8.46484L7.85328 10.4711L2.7583 8.86063Z" fill="url(#paint5_linear_9366_16253)"/>
<rect x="6.76299" y="22.543" width="15.6394" height="3.94507" rx="1.97254" fill="#116B89"/>
<rect x="6.76299" y="26.7695" width="15.6394" height="3.94507" rx="1.97254" fill="#116B89"/>
<path d="M59.2247 22.419C59.2247 23.9993 58.033 25.2804 56.5629 25.2804C55.0928 25.2804 53.9011 23.9993 53.9011 22.419C53.9011 20.8387 55.0928 19.5576 56.5629 19.5576C58.033 19.5576 59.2247 20.8387 59.2247 22.419Z" fill="#126B8A"/>
<path d="M40.5156 23.6029C40.5156 23.9826 40.3357 24.3024 39.976 24.5422C39.6162 24.7821 39.0566 24.902 38.3371 24.902C37.4777 24.902 36.6982 24.7021 35.9787 24.2624C35.2592 23.8427 34.6596 23.2631 34.1999 22.5036L31.9414 24.3823C32.4611 25.3817 33.2605 26.2011 34.3798 26.8407C35.479 27.4803 36.8181 27.8 38.417 27.8C39.916 27.8 41.1752 27.3803 42.1945 26.5409C43.1938 25.7015 43.7135 24.6422 43.7135 23.363C43.7135 22.5836 43.5136 21.904 43.1338 21.3244C42.7341 20.7648 42.2544 20.3251 41.6948 20.0453C41.1152 19.7655 40.4956 19.5256 39.8161 19.2858C39.1365 19.0659 38.497 18.8861 37.9374 18.7661C37.3577 18.6462 36.8781 18.4663 36.4983 18.2265C36.0986 18.0067 35.9187 17.7268 35.9187 17.3871C35.9187 16.5077 36.6182 16.068 38.0173 16.068C39.3364 16.068 40.5156 16.6276 41.5349 17.7468L43.6135 15.7482C42.3144 14.0293 40.4956 13.1699 38.1372 13.1699C36.5383 13.1699 35.2192 13.5896 34.2199 14.4291C33.2205 15.2685 32.7209 16.2678 32.7209 17.427C32.7209 18.2265 32.9008 18.926 33.3005 19.4857C33.6802 20.0453 34.1599 20.465 34.7395 20.7448C35.2991 21.0246 35.9387 21.2844 36.6182 21.5043C37.2978 21.7441 37.9174 21.924 38.497 22.0639C39.0566 22.2038 39.5363 22.4037 39.936 22.6635C40.3157 22.9233 40.5156 23.2431 40.5156 23.6029Z" fill="#1E2C31"/>
<path d="M50.4163 24.9767V27.4803H48.9142C47.8437 27.4803 47.0092 27.2213 46.4106 26.7033C45.812 26.1738 45.5128 25.3162 45.5128 24.1306V20.2975H44.3387V17.8458H45.5128V15.4976H48.4653V17.8458H50.3991V20.2975H48.4653V24.1652C48.4653 24.4529 48.5343 24.6601 48.6725 24.7867C48.8106 24.9134 49.0408 24.9767 49.3631 24.9767H50.4163Z" fill="#1E2C31"/>
<path d="M51.1804 22.6457C51.1804 21.6558 51.3645 20.7868 51.7329 20.0386C52.1127 19.2904 52.625 18.7148 53.2696 18.3119C53.9142 17.9091 54.6336 17.7076 55.4278 17.7076C56.107 17.7076 56.6998 17.8458 57.2062 18.122C57.7242 18.3983 58.1213 18.7609 58.3976 19.2098V17.8458H61.3501V27.4803H58.3976V26.1162C58.1098 26.5651 57.707 26.9277 57.189 27.204C56.6825 27.4803 56.0897 27.6184 55.4106 27.6184C54.6278 27.6184 53.9142 27.4169 53.2696 27.0141C52.625 26.5997 52.1127 26.0184 51.7329 25.2702C51.3645 24.5105 51.1804 23.6357 51.1804 22.6457ZM58.3976 22.663C58.3976 21.9263 58.1904 21.345 57.776 20.9191C57.3731 20.4932 56.8782 20.2803 56.2911 20.2803C55.7041 20.2803 55.2034 20.4932 54.789 20.9191C54.3861 21.3335 54.1847 21.9091 54.1847 22.6457C54.1847 23.3824 54.3861 23.9695 54.789 24.4069C55.2034 24.8328 55.7041 25.0457 56.2911 25.0457C56.8782 25.0457 57.3731 24.8328 57.776 24.4069C58.1904 23.981 58.3976 23.3997 58.3976 22.663Z" fill="#1E2C31"/>
<path d="M62.6055 22.663C62.6055 21.6616 62.807 20.7868 63.2099 20.0386C63.6242 19.2904 64.194 18.7148 64.9192 18.3119C65.6559 17.9091 66.4962 17.7076 67.4401 17.7076C68.6487 17.7076 69.6559 18.0242 70.4616 18.6573C71.2789 19.2904 71.8141 20.1824 72.0674 21.3335H68.9249C68.6602 20.5968 68.148 20.2285 67.3883 20.2285C66.8473 20.2285 66.4156 20.4414 66.0933 20.8673C65.771 21.2817 65.6098 21.8803 65.6098 22.663C65.6098 23.4457 65.771 24.0501 66.0933 24.4759C66.4156 24.8903 66.8473 25.0975 67.3883 25.0975C68.148 25.0975 68.6602 24.7292 68.9249 23.9925H72.0674C71.8141 25.1206 71.2789 26.0069 70.4616 26.6515C69.6444 27.2961 68.6372 27.6184 67.4401 27.6184C66.4962 27.6184 65.6559 27.4169 64.9192 27.0141C64.194 26.6112 63.6242 26.0357 63.2099 25.2875C62.807 24.5393 62.6055 23.6644 62.6055 22.663Z" fill="#1E2C31"/>
<path d="M79.2409 27.4803L76.3057 23.44V27.4803H73.3532V14.7033H76.3057V21.7652L79.2236 17.8458H82.8668L78.861 22.6803L82.9013 27.4803H79.2409Z" fill="#1E2C31"/>
<path d="M85.2178 16.8443C84.6998 16.8443 84.2739 16.6947 83.9401 16.3954C83.6178 16.0846 83.4567 15.7048 83.4567 15.2558C83.4567 14.7954 83.6178 14.4156 83.9401 14.1163C84.2739 13.8055 84.6998 13.6501 85.2178 13.6501C85.7243 13.6501 86.1387 13.8055 86.461 14.1163C86.7948 14.4156 86.9617 14.7954 86.9617 15.2558C86.9617 15.7048 86.7948 16.0846 86.461 16.3954C86.1387 16.6947 85.7243 16.8443 85.2178 16.8443ZM86.6854 17.8458V27.4803H83.7329V17.8458H86.6854Z" fill="#1E2C31"/>
<path d="M92.8653 24.7177L94.9545 17.8458H98.097L94.6783 27.4803H91.0351L87.6165 17.8458H90.7761L92.8653 24.7177Z" fill="#1E2C31"/>
<path d="M108.888 17.8458L102.845 32.0558H99.6678L101.878 27.1522L97.9584 17.8458H101.256L103.484 23.8716L105.694 17.8458H108.888Z" fill="#1E2C31"/>
<defs>
<linearGradient id="paint0_linear_9366_16253" x1="24.5954" y1="11.4716" x2="16.2283" y2="21.7969" gradientUnits="userSpaceOnUse">
<stop stop-color="#1281A8"/>
<stop offset="1" stop-color="#053E51"/>
</linearGradient>
<linearGradient id="paint1_linear_9366_16253" x1="1.9273" y1="9.51212" x2="15.6716" y2="20.7907" gradientUnits="userSpaceOnUse">
<stop stop-color="#F7D06D"/>
<stop offset="0.0001" stop-color="#DEC366"/>
<stop offset="0.634242" stop-color="#58936A"/>
<stop offset="1" stop-color="#2C7864"/>
</linearGradient>
<linearGradient id="paint2_linear_9366_16253" x1="27.1281" y1="9.28111" x2="15.6764" y2="21.3859" gradientUnits="userSpaceOnUse">
<stop offset="0.160542" stop-color="#1588B0"/>
<stop offset="1" stop-color="#08495D"/>
</linearGradient>
<linearGradient id="paint3_linear_9366_16253" x1="14.5669" y1="1.38207" x2="14.5669" y2="22.1513" gradientUnits="userSpaceOnUse">
<stop offset="0.0885417" stop-color="#4ABB99"/>
<stop offset="0.53125" stop-color="#00ACA9"/>
<stop offset="1" stop-color="#166072"/>
</linearGradient>
<linearGradient id="paint4_linear_9366_16253" x1="12.4306" y1="4.70515" x2="14.0921" y2="21.1426" gradientUnits="userSpaceOnUse">
<stop stop-color="#47C0A1"/>
<stop offset="0.5" stop-color="#038D8A"/>
<stop offset="1" stop-color="#0A5F74"/>
</linearGradient>
<linearGradient id="paint5_linear_9366_16253" x1="6.79348" y1="8.97931" x2="13.9737" y2="22.153" gradientUnits="userSpaceOnUse">
<stop stop-color="#F7D06D"/>
<stop offset="0.489583" stop-color="#96CC7D"/>
<stop offset="1" stop-color="#66BD87"/>
</linearGradient>
</defs>
</svg>
