<svg width="16" height="16" viewBox="0 0 16 16" fill="none" xmlns="http://www.w3.org/2000/svg">
<path d="M2.5111 13.1832C2.16582 13.1832 1.87014 13.0601 1.62406 12.814C1.37797 12.5679 1.25514 12.2725 1.25556 11.9276V5.02213C1.25556 4.67685 1.3786 4.38117 1.62469 4.13508C1.87077 3.889 2.16624 3.76616 2.5111 3.76658H5.02219V2.51104C5.02219 2.16576 5.14523 1.87008 5.39132 1.624C5.6374 1.37791 5.93288 1.25508 6.27773 1.25549H8.78882C9.13409 1.25549 9.42978 1.37854 9.67586 1.62462C9.92195 1.87071 10.0448 2.16618 10.0444 2.51104V3.76658H12.5555C12.9007 3.76658 13.1964 3.88963 13.4425 4.13571C13.6886 4.3818 13.8114 4.67727 13.811 5.02213V11.9276C13.811 12.2729 13.688 12.5686 13.4419 12.8147C13.1958 13.0607 12.9003 13.1836 12.5555 13.1832H2.5111ZM6.27773 3.76658H8.78882V2.51104H6.27773V3.76658ZM12.5555 9.41653H9.41659V10.6721H5.64996V9.41653H2.5111V11.9276H12.5555V9.41653ZM6.9055 9.41653H8.16105V8.16099H6.9055V9.41653ZM2.5111 8.16099H5.64996V6.90544H9.41659V8.16099H12.5555V5.02213H2.5111V8.16099Z" fill="#6B7280"/>
</svg>
