<svg width="110" height="41" viewBox="0 0 110 41" fill="none" xmlns="http://www.w3.org/2000/svg">
<path d="M7.71559 23.2418L8.98899 21.1386L1.51199 15.5084L3.83085 15.2111L2.76061 9.85989L7.86582 11.4736L8.50252 9.46333L10.756 12.747L10.2195 5.97936L11.9766 7.05961L14.8481 2.44531L17.6739 7.05961L19.584 5.73613L19.1115 12.747L21.4304 9.38422L22.0669 11.5799L27.1385 9.89972L26.1084 15.1006L28.4119 15.444L21.1578 21.0384L22.4456 23.2418H7.71559Z" fill="#0D6F8E"/>
<path d="M8.80473 21.0491L14.8722 23.2494H7.67126L8.80473 21.0491Z" fill="#0C6B8A"/>
<path d="M21.1598 20.9751L22.4556 23.248H14.2678L21.1598 20.9751Z" fill="#0C6B8A"/>
<path d="M15.7502 22.755L27.1393 9.83496L26.1091 15.0359L28.4127 15.3793L21.1586 20.9736L15.7502 22.755Z" fill="url(#paint0_linear_9480_50428)"/>
<path d="M14.5939 23.1759L2.76183 9.79785L3.81679 15.1177L1.51322 15.4611L8.76731 21.0555L14.5939 23.1759Z" fill="url(#paint1_linear_9480_50428)"/>
<path d="M15.7878 22.759L27.0986 9.87055C25.1375 10.535 24.0381 10.9075 22.077 11.572L21.4363 9.32158L19.1392 12.6473L14.5987 23.1753L15.7878 22.759Z" fill="url(#paint2_linear_9480_50428)"/>
<path d="M14.8318 2.36377L14.5939 23.174L19.1127 12.7094L19.5884 5.63395L17.6857 7.00148L14.8318 2.36377Z" fill="url(#paint3_linear_9480_50428)"/>
<path d="M14.8311 2.36377L14.5933 23.174L10.7286 12.65L10.0745 5.63395L11.9772 7.00148L14.8311 2.36377Z" fill="url(#paint4_linear_9480_50428)"/>
<path d="M2.76465 9.79427L14.5968 23.1723L10.7599 12.6814L8.50637 9.39771L7.86967 11.408L2.76465 9.79427Z" fill="url(#paint5_linear_9480_50428)"/>
<rect x="6.77441" y="23.5098" width="15.6702" height="3.95285" rx="1.97643" fill="#116B89"/>
<rect x="6.77441" y="27.7422" width="15.6702" height="3.95285" rx="1.97643" fill="#116B89"/>
<path d="M59.3415 23.3825C59.3415 24.966 58.1474 26.2496 56.6745 26.2496C55.2015 26.2496 54.0074 24.966 54.0074 23.3825C54.0074 21.7991 55.2015 20.5155 56.6745 20.5155C58.1474 20.5155 59.3415 21.7991 59.3415 23.3825Z" fill="#F5CF6C"/>
<path d="M40.5955 24.5688C40.5955 24.9492 40.4153 25.2697 40.0548 25.51C39.6944 25.7503 39.1336 25.8704 38.4127 25.8704C37.5516 25.8704 36.7706 25.6702 36.0497 25.2296C35.3287 24.8091 34.7279 24.2283 34.2674 23.4673L32.0044 25.3498C32.5251 26.3511 33.3261 27.1721 34.4476 27.813C35.549 28.4538 36.8907 28.7742 38.4928 28.7742C39.9948 28.7742 41.2564 28.3537 42.2777 27.5126C43.279 26.6715 43.7997 25.6101 43.7997 24.3284C43.7997 23.5474 43.5994 22.8666 43.2189 22.2858C42.8184 21.7251 42.3378 21.2845 41.7771 21.0041C41.1963 20.7238 40.5755 20.4835 39.8946 20.2432C39.2137 20.0229 38.5729 19.8426 38.0122 19.7225C37.4314 19.6023 36.9508 19.4221 36.5703 19.1818C36.1698 18.9615 35.9896 18.6811 35.9896 18.3407C35.9896 17.4596 36.6905 17.019 38.0923 17.019C39.414 17.019 40.5955 17.5797 41.6169 18.7012L43.6996 16.6986C42.3979 14.9763 40.5755 14.1152 38.2125 14.1152C36.6104 14.1152 35.2887 14.5358 34.2874 15.3769C33.2861 16.218 32.7854 17.2192 32.7854 18.3808C32.7854 19.1818 32.9657 19.8827 33.3662 20.4434C33.7467 21.0041 34.2273 21.4247 34.8081 21.7051C35.3688 21.9854 36.0096 22.2458 36.6905 22.466C37.3714 22.7063 37.9922 22.8866 38.5729 23.0268C39.1336 23.1669 39.6143 23.3672 40.0148 23.6275C40.3953 23.8879 40.5955 24.2083 40.5955 24.5688Z" fill="white"/>
<path d="M50.5158 25.9453V28.4538H49.0107C47.9381 28.4538 47.1019 28.1943 46.5022 27.6753C45.9024 27.1447 45.6025 26.2855 45.6025 25.0975V21.2569H44.4261V18.8003H45.6025V16.4475H48.5609V18.8003H50.4985V21.2569H48.5609V25.1321C48.5609 25.4205 48.6301 25.6281 48.7685 25.755C48.9069 25.8818 49.1375 25.9453 49.4605 25.9453H50.5158Z" fill="white"/>
<path d="M51.2813 23.6097C51.2813 22.6179 51.4659 21.7471 51.8349 20.9974C52.2155 20.2477 52.7288 19.6711 53.3746 19.2674C54.0205 18.8637 54.7414 18.6619 55.5372 18.6619C56.2176 18.6619 56.8116 18.8003 57.3191 19.0771C57.8381 19.3539 58.236 19.7172 58.5128 20.167V18.8003H61.4711V28.4538H58.5128V27.0871C58.2244 27.5369 57.8208 27.9002 57.3018 28.177C56.7943 28.4538 56.2003 28.5922 55.5199 28.5922C54.7356 28.5922 54.0205 28.3903 53.3746 27.9867C52.7288 27.5715 52.2155 26.989 51.8349 26.2394C51.4659 25.4782 51.2813 24.6016 51.2813 23.6097ZM58.5128 23.627C58.5128 22.8889 58.3052 22.3065 57.89 21.8797C57.4863 21.453 56.9904 21.2396 56.4022 21.2396C55.814 21.2396 55.3123 21.453 54.8971 21.8797C54.4934 22.2949 54.2915 22.8716 54.2915 23.6097C54.2915 24.3479 54.4934 24.9361 54.8971 25.3744C55.3123 25.8011 55.814 26.0145 56.4022 26.0145C56.9904 26.0145 57.4863 25.8011 57.89 25.3744C58.3052 24.9476 58.5128 24.3652 58.5128 23.627Z" fill="white"/>
<path d="M62.729 23.627C62.729 22.6236 62.9309 21.7471 63.3345 20.9974C63.7497 20.2477 64.3206 19.6711 65.0472 19.2674C65.7854 18.8637 66.6273 18.6619 67.5731 18.6619C68.7841 18.6619 69.7933 18.9791 70.6006 19.6134C71.4195 20.2477 71.9558 21.1416 72.2095 22.2949H69.0609C68.7956 21.5568 68.2824 21.1877 67.5212 21.1877C66.9791 21.1877 66.5466 21.4011 66.2237 21.8278C65.9007 22.243 65.7392 22.8428 65.7392 23.627C65.7392 24.4113 65.9007 25.0168 66.2237 25.4436C66.5466 25.8588 66.9791 26.0664 67.5212 26.0664C68.2824 26.0664 68.7956 25.6973 69.0609 24.9591H72.2095C71.9558 26.0894 71.4195 26.9775 70.6006 27.6234C69.7817 28.2692 68.7725 28.5922 67.5731 28.5922C66.6273 28.5922 65.7854 28.3903 65.0472 27.9867C64.3206 27.583 63.7497 27.0063 63.3345 26.2567C62.9309 25.507 62.729 24.6304 62.729 23.627Z" fill="white"/>
<path d="M79.3972 28.4538L76.4562 24.4055V28.4538H73.4978V15.6517H76.4562V22.7274L79.3799 18.8003H83.0302L79.0166 23.6443L83.0648 28.4538H79.3972Z" fill="white"/>
<path d="M85.3859 17.7969C84.8669 17.7969 84.4401 17.6469 84.1057 17.3471C83.7827 17.0357 83.6213 16.6551 83.6213 16.2053C83.6213 15.7439 83.7827 15.3633 84.1057 15.0635C84.4401 14.7521 84.8669 14.5964 85.3859 14.5964C85.8933 14.5964 86.3085 14.7521 86.6315 15.0635C86.9659 15.3633 87.1332 15.7439 87.1332 16.2053C87.1332 16.6551 86.9659 17.0357 86.6315 17.3471C86.3085 17.6469 85.8933 17.7969 85.3859 17.7969ZM86.8564 18.8003V28.4538H83.8981V18.8003H86.8564Z" fill="white"/>
<path d="M93.0485 25.6858L95.1418 18.8003H98.2904L94.865 28.4538H91.2147L87.7892 18.8003H90.9552L93.0485 25.6858Z" fill="white"/>
<path d="M109.103 18.8003L103.048 33.0383H99.8643L102.079 28.1251L98.1516 18.8003H101.456L103.688 24.838L105.902 18.8003H109.103Z" fill="white"/>
<defs>
<linearGradient id="paint0_linear_9480_50428" x1="24.6419" y1="12.4113" x2="16.2583" y2="22.7569" gradientUnits="userSpaceOnUse">
<stop stop-color="#1281A8"/>
<stop offset="1" stop-color="#053E51"/>
</linearGradient>
<linearGradient id="paint1_linear_9480_50428" x1="1.92942" y1="10.4519" x2="15.7008" y2="21.7527" gradientUnits="userSpaceOnUse">
<stop stop-color="#F7D06D"/>
<stop offset="0.0001" stop-color="#DEC366"/>
<stop offset="0.634242" stop-color="#58936A"/>
<stop offset="1" stop-color="#2C7864"/>
</linearGradient>
<linearGradient id="paint2_linear_9480_50428" x1="27.1848" y1="10.2192" x2="15.7105" y2="22.3479" gradientUnits="userSpaceOnUse">
<stop offset="0.160542" stop-color="#1588B0"/>
<stop offset="1" stop-color="#08495D"/>
</linearGradient>
<linearGradient id="paint3_linear_9480_50428" x1="14.5939" y1="2.30431" x2="14.5939" y2="23.1145" gradientUnits="userSpaceOnUse">
<stop offset="0.0885417" stop-color="#4ABB99"/>
<stop offset="0.53125" stop-color="#00ACA9"/>
<stop offset="1" stop-color="#166072"/>
</linearGradient>
<linearGradient id="paint4_linear_9480_50428" x1="12.4528" y1="5.63395" x2="14.1177" y2="22.1038" gradientUnits="userSpaceOnUse">
<stop stop-color="#47C0A1"/>
<stop offset="0.5" stop-color="#038D8A"/>
<stop offset="1" stop-color="#0A5F74"/>
</linearGradient>
<linearGradient id="paint5_linear_9480_50428" x1="6.80778" y1="9.91319" x2="14.0022" y2="23.1128" gradientUnits="userSpaceOnUse">
<stop stop-color="#F7D06D"/>
<stop offset="0.489583" stop-color="#96CC7D"/>
<stop offset="1" stop-color="#66BD87"/>
</linearGradient>
</defs>
</svg>
